<svg id="Layer_1" data-name="Layer 1" xmlns="http://www.w3.org/2000/svg" xmlns:xlink="http://www.w3.org/1999/xlink" viewBox="0 0 663.47 687.29"><defs><style>.cls-1{fill:url(#linear-gradient);}.cls-2{fill:#ffcb24;}.cls-3{fill:#f8c340;}.cls-4{fill:url(#linear-gradient-2);}.cls-5{fill:url(#linear-gradient-3);}.cls-6{fill:url(#linear-gradient-4);}.cls-7{fill:url(#linear-gradient-5);}.cls-8{fill:url(#linear-gradient-6);}.cls-9{fill:url(#linear-gradient-7);}.cls-10{fill:url(#linear-gradient-8);}.cls-11{fill:url(#linear-gradient-9);}.cls-12{fill:url(#linear-gradient-10);}.cls-13{fill:url(#linear-gradient-11);}.cls-14{fill:url(#linear-gradient-12);}.cls-15{fill:url(#linear-gradient-13);}.cls-16{fill:url(#linear-gradient-14);}.cls-17{fill:#fff;}.cls-18{fill:url(#linear-gradient-15);}</style><linearGradient id="linear-gradient" x1="-105.54" y1="1310.83" x2="-99.13" y2="1310.83" gradientTransform="matrix(4.15, -11.33, -16.16, -5.92, 22142.68, 7375.48)" gradientUnits="userSpaceOnUse"><stop offset="0" stop-color="#be1e2d"/><stop offset="1" stop-color="#ec1c24"/></linearGradient><linearGradient id="linear-gradient-2" x1="483.71" y1="711.99" x2="384.57" y2="711.99" gradientTransform="translate(-220.81 1210.28) rotate(-83.73)" gradientUnits="userSpaceOnUse"><stop offset="0" stop-color="#b22a30"/><stop offset="1" stop-color="#ec1c24" stop-opacity="0"/></linearGradient><linearGradient id="linear-gradient-3" x1="376.03" y1="713.3" x2="475.17" y2="713.3" gradientTransform="translate(-220.81 1210.28) rotate(-83.73)" xlink:href="#linear-gradient"/><linearGradient id="linear-gradient-4" x1="722.08" y1="503.44" x2="823.52" y2="503.44" gradientTransform="translate(-241.6 1121.92) rotate(-61.1)" xlink:href="#linear-gradient-2"/><linearGradient id="linear-gradient-5" x1="723.58" y1="499.35" x2="825.02" y2="499.35" gradientTransform="translate(-241.6 1121.92) rotate(-61.1)" xlink:href="#linear-gradient"/><linearGradient id="linear-gradient-6" x1="-110.23" y1="1321.4" x2="-103.87" y2="1321.4" gradientTransform="matrix(11.74, -9.07, -10.73, -13.88, 16068.08, 17965.52)" gradientUnits="userSpaceOnUse"><stop offset="0" stop-color="#b22a30"/><stop offset="1" stop-color="#95080b"/></linearGradient><linearGradient id="linear-gradient-7" x1="-110.22" y1="1321.48" x2="-103.86" y2="1321.48" gradientTransform="matrix(11.74, -9.07, -10.72, -13.88, 16063.53, 17960.15)" xlink:href="#linear-gradient"/><linearGradient id="linear-gradient-8" x1="-102.12" y1="1324.75" x2="-95.61" y2="1324.75" gradientTransform="matrix(11.82, -7.33, -9.59, -15.46, 14589.01, 20301.58)" xlink:href="#linear-gradient"/><linearGradient id="linear-gradient-9" x1="-98.82" y1="1328.02" x2="-92.73" y2="1328.02" gradientTransform="matrix(12.45, -7.03, -9.69, -17.17, 14864.49, 22643.69)" xlink:href="#linear-gradient-6"/><linearGradient id="linear-gradient-10" x1="-98.76" y1="1328.16" x2="-92.67" y2="1328.16" gradientTransform="matrix(12.45, -7.03, -9.69, -17.17, 14864.36, 22642.9)" xlink:href="#linear-gradient"/><linearGradient id="linear-gradient-11" x1="964.67" y1="560.91" x2="1066.12" y2="560.91" gradientTransform="matrix(1, 0, 0, 1, -145.69, -45.57)" xlink:href="#linear-gradient-2"/><linearGradient id="linear-gradient-12" x1="966.17" y1="556.83" x2="1067.62" y2="556.83" gradientTransform="matrix(1, 0, 0, 1, -145.69, -45.57)" xlink:href="#linear-gradient"/><linearGradient id="linear-gradient-13" x1="-122.21" y1="1314.65" x2="-105.72" y2="1314.65" gradientTransform="matrix(23.73, 0, 0, -24.54, 3629.27, 33176.69)" xlink:href="#linear-gradient"/><linearGradient id="linear-gradient-14" x1="-128.16" y1="1318.94" x2="-111.67" y2="1318.94" gradientTransform="matrix(24.91, 0, 0, -25.57, 3811.59, 34550.28)" xlink:href="#linear-gradient"/><linearGradient id="linear-gradient-15" x1="-136.38" y1="1323.95" x2="-119.88" y2="1323.95" gradientTransform="matrix(32.63, 0, 0, -34.99, 5036.37, 47173.5)" gradientUnits="userSpaceOnUse"><stop offset="0" stop-color="#f9ec31"/><stop offset="1" stop-color="#f6921e"/></linearGradient></defs><g id="Group_4220" data-name="Group 4220"><path id="Path_890" data-name="Path 890" class="cls-1" d="M586.08,752.48l9.91,4.79a7.16,7.16,0,0,1,3.75,8.4l-15.13,53a7.16,7.16,0,0,1-8.83,4.92l-91.47-26.1a7.15,7.15,0,0,1-4.92-8.85h0l4.43-15.53a7.17,7.17,0,0,1,8.85-4.92h0l74.17,21.16,9.27-32.46A7.17,7.17,0,0,1,585,752a7.74,7.74,0,0,1,1.16.45Z" transform="translate(-466.53 -450.6)"/><g id="Path_891" data-name="Path 891"><path id="Path_181" data-name="Path 181" class="cls-2" d="M577,817a5.14,5.14,0,0,1-6.18,3.15L479.32,794a5.14,5.14,0,0,1-3.5-6.31l4.43-15.52.13-.36a5.13,5.13,0,0,1,6.18-3.14l74.18,21.17,2,.56.57-2L572.55,756l.13-.36a5.13,5.13,0,0,1,2.87-3,5,5,0,0,1,4.14.15l9.89,4.8a5.1,5.1,0,0,1,2.67,6l-15.13,53Z" transform="translate(-466.53 -450.6)"/><path id="Path_182" data-name="Path 182" class="cls-3" d="M575,816.25l.07-.21,15.14-53a3,3,0,0,0-1.59-3.57l-9.89-4.8a3,3,0,0,0-4,1.39c-.05.09-.09.19-.13.28l-.08.23L565.25,789l-1.13,4-4-1.13L486,770.66a3,3,0,0,0-3.68,1.87l-.08.21-4.43,15.53a3,3,0,0,0,2.08,3.76l91.48,26.1a3,3,0,0,0,3.68-1.87h0m3.87,1.42a7.17,7.17,0,0,1-8.69,4.4L478.76,796a7.17,7.17,0,0,1-4.92-8.85l4.43-15.53.19-.5a7.16,7.16,0,0,1,8.68-4.42l74.17,21.17,9.27-32.46.18-.51a7.14,7.14,0,0,1,9.19-4.21,4.78,4.78,0,0,1,.62.26l9.89,4.8a7.16,7.16,0,0,1,3.76,8.4l-15.14,53Z" transform="translate(-466.53 -450.6)"/></g></g><g id="Group_4221" data-name="Group 4221"><path id="Path_892" data-name="Path 892" class="cls-4" d="M506.6,804.92c24.41-3.26,43.12,12.27,46.67,38.88l1.07,8a7.6,7.6,0,0,0,8.52,6.52l20.72-2.77a7.6,7.6,0,0,1,8.52,6.52l2.24,17a7.6,7.6,0,0,1-6.52,8.52L487.84,901a7.59,7.59,0,0,1-8.52-6.52l-5.6-41.94C470.29,827,483.43,808,506.6,804.92Zm5.48,32.67a12.45,12.45,0,0,0-11.69,13.15,12.79,12.79,0,0,0,.19,1.53l1.87,14.15,26.43-3.53L527,848.74a12.44,12.44,0,0,0-13.43-11.36,11.13,11.13,0,0,0-1.52.22Z" transform="translate(-466.53 -450.6)"/><path id="Path_893" data-name="Path 893" class="cls-5" d="M507,813.56c24.41-3.26,43.15,12.27,46.67,38.87l1.07,8a7.6,7.6,0,0,0,8.52,6.53l20.68-2.77a7.6,7.6,0,0,1,8.52,6.52l2.24,17a7.59,7.59,0,0,1-6.52,8.52l-99.95,13.39a7.6,7.6,0,0,1-8.52-6.53l-5.6-41.93C470.69,835.67,483.81,816.67,507,813.56Zm5.48,32.65a12.44,12.44,0,0,0-11.68,13.16,12.86,12.86,0,0,0,.18,1.52L502.84,875l26.44-3.53-1.87-14.15A12.44,12.44,0,0,0,514,846,12.94,12.94,0,0,0,512.47,846.21Z" transform="translate(-466.53 -450.6)"/><g id="Path_894" data-name="Path 894"><path id="Path_183" data-name="Path 183" class="cls-2" d="M585.62,890.26A5.38,5.38,0,0,1,581,895L480.94,908.4a5.45,5.45,0,0,1-6.09-4.62l-5.6-41.93a53.78,53.78,0,0,1-.23-12.93,34.64,34.64,0,0,1,31.26-32.22,37,37,0,0,1,29.46,7.75,44.7,44.7,0,0,1,14.75,29.25l1.07,8a9.79,9.79,0,0,0,11,8.4l20.72-2.77a5.44,5.44,0,0,1,6.08,4.64l2.24,17A5,5,0,0,1,585.62,890.26ZM491.73,857.9a17.69,17.69,0,0,0,.06,4.24l1.87,14.15.29,2.17,2.17-.29,26.44-3.54,2.16-.28-.28-2.17L522.57,858a15,15,0,0,0-5.75-10.35A15.64,15.64,0,0,0,505.16,845,14.56,14.56,0,0,0,491.73,857.9Z" transform="translate(-466.53 -450.6)"/><path id="Path_184" data-name="Path 184" class="cls-3" d="M471.2,849.14a51.46,51.46,0,0,0,.22,12.4l5.6,41.94a3.23,3.23,0,0,0,3.63,2.77l100-13.37a3.21,3.21,0,0,0,2.78-2.84,2.91,2.91,0,0,0,0-.78l-2.24-17a3.24,3.24,0,0,0-3.62-2.77l-20.77,2.75A12,12,0,0,1,543.39,862l-1.07-8a42.51,42.51,0,0,0-14-27.86,34.94,34.94,0,0,0-27.78-7.27,33.92,33.92,0,0,0-20.31,9.76,34.73,34.73,0,0,0-9.06,20.54m56,27.09-4.34.58-26.44,3.53-4.32.58-.58-4.33-1.87-14.15a20,20,0,0,1-.08-4.77,16.68,16.68,0,0,1,15.32-14.83,17.79,17.79,0,0,1,13.25,3.09,17.34,17.34,0,0,1,6.61,11.81l1.87,14.15.58,4.33m-60.36-27.56A36.84,36.84,0,0,1,500,814.49c24.41-3.26,43.11,12.27,46.67,38.88l1.07,8a7.58,7.58,0,0,0,8.53,6.52h0L577,865.15a7.59,7.59,0,0,1,8.53,6.52h0l2.24,17a7.57,7.57,0,0,1-6.49,8.53h0L481.18,910.56a7.59,7.59,0,0,1-8.53-6.52L467,862.11a55.54,55.54,0,0,1-.19-13.45Zm55.44,23.8-1.87-14.15a13.45,13.45,0,0,0-26.5-.17,15.35,15.35,0,0,0,.06,3.71L495.84,876Z" transform="translate(-466.53 -450.6)"/></g></g><g id="Group_4222" data-name="Group 4222"><path id="Path_895" data-name="Path 895" class="cls-6" d="M606.93,690.76l-14.27,25.86,14,12.8a7.17,7.17,0,0,1,1.44,8.76l-8.38,15.17a7.17,7.17,0,0,1-11.43,1.54l-69.61-71.44a7.19,7.19,0,0,1-1.14-8.48l14.21-25.75a7.18,7.18,0,0,1,7.8-3.54l97.49,21a7.19,7.19,0,0,1,4.77,10.49l-8.38,15.17a7.18,7.18,0,0,1-8.19,3.46Zm-23.34-6.3-27.76-7.65a2.29,2.29,0,0,0-2.15,3.9l21.58,19.86L583.84,685a.41.41,0,0,0-.18-.55l-.07,0Z" transform="translate(-466.53 -450.6)"/><path id="Path_896" data-name="Path 896" class="cls-7" d="M604.08,687.48,589.8,713.34l14,12.8a7.17,7.17,0,0,1,1.44,8.76l-8.37,15.17a7.19,7.19,0,0,1-9.77,2.81,7.32,7.32,0,0,1-1.66-1.27l-69.61-71.44a7.21,7.21,0,0,1-1.15-8.49l14.22-25.74a7.19,7.19,0,0,1,7.8-3.56l97.48,21a7.16,7.16,0,0,1,4.78,10.49L630.53,689a7.16,7.16,0,0,1-8.17,3.45Zm-23.35-6.32L553,673.51a2.29,2.29,0,0,0-2.15,3.91l21.59,19.86L581,681.74a.41.41,0,0,0-.2-.55l-.06,0Z" transform="translate(-466.53 -450.6)"/><g id="Path_897" data-name="Path 897"><path id="Path_185" data-name="Path 185" class="cls-2" d="M633.19,669l-8.37,15.18a5.14,5.14,0,0,1-5.84,2.47l-18.26-5-1.57-.43L583.31,710l1.19,1.1,14,12.79a5.09,5.09,0,0,1,1,6.24l-8.37,15.17a5.1,5.1,0,0,1-6.94,2,4.87,4.87,0,0,1-1.2-.91l-69.61-71.44a5.09,5.09,0,0,1-.82-6l14.22-25.75a5.15,5.15,0,0,1,5.55-2.53l97.48,21a5.15,5.15,0,0,1,3.9,6.15A4.79,4.79,0,0,1,633.19,669Zm-88.55.79a4.29,4.29,0,0,0,.87,5.32L567.09,695l1.94,1.81L578.89,679a2.46,2.46,0,0,0-1-3.35,2.63,2.63,0,0,0-.55-.22l-27.76-7.64A4.3,4.3,0,0,0,544.64,669.82Z" transform="translate(-466.53 -450.6)"/><path id="Path_186" data-name="Path 186" class="cls-3" d="M631.39,668a3,3,0,0,0-1.19-4.14,3.08,3.08,0,0,0-.83-.31l-97.49-21a3.06,3.06,0,0,0-3.31,1.5l-14.22,25.75a3,3,0,0,0,.49,3.6l69.61,71.44a3,3,0,0,0,4.31.06,2.84,2.84,0,0,0,.54-.71l8.38-15.17a3,3,0,0,0-.61-3.72l-14-12.79-2.4-2.2,17.42-31.56,3.14.86,18.27,5a3,3,0,0,0,3.47-1.47L631.39,668m-88.56.78a6.44,6.44,0,0,1,7.33-3.09l27.77,7.64a4.52,4.52,0,0,1,2.76,6.56l-11.13,20.15-3.87-3.57-21.58-19.85a6.44,6.44,0,0,1-1.28-7.84M635,670l-8.4,15.21a7.19,7.19,0,0,1-8.18,3.47l-18.27-5-14.28,25.86,14,12.8a7.19,7.19,0,0,1,1.44,8.76l-8.37,15.15a7.18,7.18,0,0,1-9.76,2.81,7.37,7.37,0,0,1-1.67-1.27l-69.61-71.44a7.17,7.17,0,0,1-1.14-8.48L525,642.14a7.19,7.19,0,0,1,7.8-3.56l97.49,21a7.19,7.19,0,0,1,5.5,8.54A7.09,7.09,0,0,1,635,670Zm-88.56.78a2.25,2.25,0,0,0,.46,2.8l21.58,19.86,8.58-15.54a.39.39,0,0,0-.16-.54l-.08,0-27.76-7.64a2.23,2.23,0,0,0-2.63,1.12Z" transform="translate(-466.53 -450.6)"/></g></g><g id="Group_4224" data-name="Group 4224"><path id="Path_900" data-name="Path 900" class="cls-8" d="M568.83,576.72l7.95-5.62a7.25,7.25,0,0,1,6.22-1l62.14,18.16-27.28-37.29a7.25,7.25,0,0,1,1.57-10.12l.08,0,12.87-9.13a7.23,7.23,0,0,1,10.09,1.71l55.69,78.42a7.24,7.24,0,0,1-1.7,10.09l-7.72,5.48a7.27,7.27,0,0,1-6.2,1l-62.39-18,27.28,37.29a7.23,7.23,0,0,1-1.58,10.11l-.07.06L632.91,667a7.24,7.24,0,0,1-10.09-1.72l-55.7-78.43a7.24,7.24,0,0,1,1.69-10.09h0Z" transform="translate(-466.53 -450.6)"/><path id="Path_901" data-name="Path 901" class="cls-9" d="M567.75,575.26l7.93-5.64a7.25,7.25,0,0,1,6.22-1L644,586.73l-27.27-37.29a7.24,7.24,0,0,1,1.57-10.12l.08-.05,12.87-9.13a7.23,7.23,0,0,1,10.09,1.71l55.69,78.42a7.22,7.22,0,0,1-1.7,10.08h0l-7.69,5.48a7.25,7.25,0,0,1-6.19,1l-62.4-18,27.28,37.29a7.24,7.24,0,0,1-1.58,10.11l-.07.06-12.88,9.12a7.24,7.24,0,0,1-10.09-1.7l-55.69-78.43A7.24,7.24,0,0,1,567.75,575.26Z" transform="translate(-466.53 -450.6)"/><g id="Path_902" data-name="Path 902"><path id="Path_189" data-name="Path 189" class="cls-2" d="M690.66,613.43l-.17.13L682.78,619a5.12,5.12,0,0,1-4.42.75l-62.39-18-5.85-1.69,3.6,4.92L641,642.31a5.19,5.19,0,0,1-1,7.12l-.17.14L627,658.69a5.14,5.14,0,0,1-7.18-1.21h0l-55.7-78.43a5.14,5.14,0,0,1,1.05-7l.17-.13,7.94-5.64a5.1,5.1,0,0,1,4.43-.74l62.15,18.16,5.88,1.72-3.62-5-27.27-37.3a5.18,5.18,0,0,1,1-7.11l.17-.13,12.87-9.13A5.16,5.16,0,0,1,636,528l55.69,78.42A5.14,5.14,0,0,1,690.66,613.43Z" transform="translate(-466.53 -450.6)"/><path id="Path_190" data-name="Path 190" class="cls-3" d="M566.39,573.64a3.06,3.06,0,0,0-.63,4.2l55.7,78.42a3.07,3.07,0,0,0,4.28.73l12.87-9.13.11-.08a3.08,3.08,0,0,0,.59-4.24L612,606.25l-7.19-9.85,11.71,3.39,62.39,18a3,3,0,0,0,2.63-.44l7.71-5.48.11-.08a3.07,3.07,0,0,0,.62-4.21l-55.69-78.42a3.07,3.07,0,0,0-4.28-.72l-12.88,9.12-.1.08a3.1,3.1,0,0,0-.59,4.24l27.27,37.29,7.24,9.9-11.77-3.44-62.14-18.16a3.07,3.07,0,0,0-2.66.42l-7.94,5.63-.11.09m-2.54-3.3.23-.18,7.94-5.64a7.26,7.26,0,0,1,6.23-1l62.14,18.16-27.28-37.3a7.23,7.23,0,0,1,1.41-10l.24-.18L627.61,525a7.25,7.25,0,0,1,10.09,1.71h0l55.7,78.42a7.24,7.24,0,0,1-1.47,9.91l-.24.19L684,620.71a7.27,7.27,0,0,1-6.2,1l-62.39-18,27.27,37.29a7.23,7.23,0,0,1-1.41,10l-.24.19-12.87,9.12a7.24,7.24,0,0,1-10.09-1.7l-55.7-78.43a7.24,7.24,0,0,1,1.49-9.88Z" transform="translate(-466.53 -450.6)"/></g></g><path id="Path_888" data-name="Path 888" class="cls-10" d="M768.59,563.8l4.65,10a7.27,7.27,0,0,1-3.52,9.65l-61,28.39a7.26,7.26,0,0,1-9.64-3.52L658.37,520.8a7.27,7.27,0,0,1,3.51-9.65l58.87-27.42a7.27,7.27,0,0,1,10.08,4.7l2.87,10.79a7.27,7.27,0,0,1-4,8.45l-35.68,16.62,7.09,15.23,32.31-15.06a7.27,7.27,0,0,1,9.65,3.52l4.64,10a7.25,7.25,0,0,1-3.51,9.64l-32.31,15.06,7.48,16L759,560.27a7.25,7.25,0,0,1,9.63,3.53Z" transform="translate(-466.53 -450.6)"/><g id="Path_889" data-name="Path 889"><path id="Path_179" data-name="Path 179" class="cls-2" d="M767.16,576.78a4.63,4.63,0,0,1-.58.31l-61,28.39a5.18,5.18,0,0,1-6.86-2.51L658,515.51a5.19,5.19,0,0,1,2.52-6.88l58.87-27.42a5.17,5.17,0,0,1,6.86,2.5,5.42,5.42,0,0,1,.31.85l2.87,10.79a5.17,5.17,0,0,1-2.81,6L691,518l-1.89.89.87,1.89L697,536l.88,1.89,1.89-.88L732.12,522a5.2,5.2,0,0,1,6.86,2.51l4.65,9.95a5.16,5.16,0,0,1-2,6.57,4.51,4.51,0,0,1-.57.31l-32.32,15.05-1.89.88.88,1.9,7.47,16,.89,1.89,1.89-.88,39.53-18.4a5.18,5.18,0,0,1,6.86,2.51l4.65,10A5.2,5.2,0,0,1,767.16,576.78Z" transform="translate(-466.53 -450.6)"/><path id="Path_180" data-name="Path 180" class="cls-3" d="M766.05,575a3.08,3.08,0,0,0,1.17-3.92l-4.65-10a3.07,3.07,0,0,0-4.09-1.49L719,578.05l-3.78,1.76L713.4,576l-7.47-16-1.77-3.79,3.79-1.77,32.31-15a2.14,2.14,0,0,0,.32-.2,3.09,3.09,0,0,0,1.17-3.91l-4.65-10a3.09,3.09,0,0,0-4.09-1.49L700.7,538.88l-3.79,1.77-1.77-3.79-7.09-15.23-1.77-3.79,3.78-1.76,35.69-16.63.31-.19a3.1,3.1,0,0,0,1.35-3.41l-2.87-10.79a3.07,3.07,0,0,0-3.78-2.17,3.13,3.13,0,0,0-.51.19l-58.81,27.44-.32.2a3.1,3.1,0,0,0-1.17,3.92l40.73,87.45a3.09,3.09,0,0,0,4.1,1.49l61-28.37a2.49,2.49,0,0,0,.32-.2m2.21,3.55a8.14,8.14,0,0,1-.77.41l-61,28.37a7.26,7.26,0,0,1-9.65-3.51l-40.74-87.46a7.25,7.25,0,0,1,3.49-9.64h0l58.87-27.42A7.26,7.26,0,0,1,728.6,484l2.87,10.79a7.24,7.24,0,0,1-4,8.45l-35.68,16.63,7.09,15.23L731.25,520a7.26,7.26,0,0,1,9.64,3.51h0l4.64,10a7.26,7.26,0,0,1-2.74,9.23,8.14,8.14,0,0,1-.77.41L709.7,558.21l7.47,16,39.53-18.4a7.26,7.26,0,0,1,9.64,3.52l4.65,10A7.27,7.27,0,0,1,768.26,578.56Z" transform="translate(-466.53 -450.6)"/></g><path id="Path_903" data-name="Path 903" class="cls-11" d="M819.76,485.87l-20.4,4,15,76.79a7.26,7.26,0,0,1-5.72,8.52h0l-16.08,3.16a7.25,7.25,0,0,1-8.51-5.73h0l-15-76.79-20.56,4a7.25,7.25,0,0,1-8.51-5.72h0l-2.11-10.78a7.27,7.27,0,0,1,5.72-8.52h0l71.28-14a7.26,7.26,0,0,1,8.52,5.72h0l2.11,10.79a7.25,7.25,0,0,1-5.73,8.51h0Z" transform="translate(-466.53 -450.6)"/><path id="Path_904" data-name="Path 904" class="cls-12" d="M819.07,482.53l-20.4,4,15,76.79a7.25,7.25,0,0,1-5.72,8.51h0L791.91,575a7.25,7.25,0,0,1-8.52-5.72h0l-15-76.78-20.55,4a7.27,7.27,0,0,1-8.52-5.73h0L737.17,480a7.26,7.26,0,0,1,5.73-8.52l71.28-14a7.26,7.26,0,0,1,8.51,5.73L824.8,474a7.25,7.25,0,0,1-5.71,8.52Z" transform="translate(-466.53 -450.6)"/><g id="Path_905" data-name="Path 905"><path id="Path_191" data-name="Path 191" class="cls-2" d="M808,562.58a5.56,5.56,0,0,1-1.58.58l-16.08,3.15a5.32,5.32,0,0,1-6.22-4.19L769,485.34l-.37-1.89-1.89.37-20.56,4a5.3,5.3,0,0,1-6.22-4.18l-2.12-10.78a5.3,5.3,0,0,1,4.17-6.22h0l71.27-14a5.31,5.31,0,0,1,6.23,4.18h0l2.11,10.79a5.29,5.29,0,0,1-4.17,6.22h0l-20.43,4-1.92.38.37,1.89,15,76.78A5.31,5.31,0,0,1,808,562.58Z" transform="translate(-466.53 -450.6)"/><path id="Path_192" data-name="Path 192" class="cls-3" d="M741.39,468.93a3.34,3.34,0,0,0-1.64,3.56l2.12,10.78a3.34,3.34,0,0,0,3.93,2.64l20.55-4,3.83-.76.76,3.83L786,561.73a3.35,3.35,0,0,0,3.93,2.65L806,561.22a3.33,3.33,0,0,0,2.64-3.91h0l-15-76.78-.77-3.84,3.83-.76,20.41-4a3.32,3.32,0,0,0,2.64-3.9v0l-2.12-10.78a3.33,3.33,0,0,0-3.91-2.64h0l-71.27,14a3.54,3.54,0,0,0-1,.37m-1.93-3.4a6.85,6.85,0,0,1,2.17-.8l71.28-14a7.26,7.26,0,0,1,8.52,5.72h0l2.12,10.78a7.26,7.26,0,0,1-5.7,8.52h0l-20.41,4,15.06,76.79a7.25,7.25,0,0,1-5.71,8.51h0l-16.08,3.15a7.26,7.26,0,0,1-8.52-5.73l-15-76.78-20.55,4A7.25,7.25,0,0,1,738,484l-2.12-10.79a7.26,7.26,0,0,1,3.55-7.71Z" transform="translate(-466.53 -450.6)"/></g><g id="Group_4222-2" data-name="Group 4222"><path id="Path_895-2" data-name="Path 895" class="cls-13" d="M881.91,550.8l-29.53-.13-4.54,18.39a7.19,7.19,0,0,1-7,5.46l-17.33-.08a7.18,7.18,0,0,1-7.15-7.21,7.28,7.28,0,0,1,.32-2.08L846,469.81a7.19,7.19,0,0,1,6.89-5.07l29.42.13a7.18,7.18,0,0,1,6.85,5.14L917.5,565.6a7.19,7.19,0,0,1-4.85,8.93,7.59,7.59,0,0,1-2.06.29l-17.34-.07a7.19,7.19,0,0,1-7-5.54Zm-5.66-23.51-6.6-28a2.3,2.3,0,0,0-4.46,0l-7.08,28.47,17.76.08a.41.41,0,0,0,.39-.43.2.2,0,0,0,0-.07Z" transform="translate(-466.53 -450.6)"/><path id="Path_896-2" data-name="Path 896" class="cls-14" d="M883.42,546.72l-29.54-.13L849.34,565a7.2,7.2,0,0,1-7,5.46L825,570.36a7.18,7.18,0,0,1-7.15-7.22,6.93,6.93,0,0,1,.32-2.07l29.3-95.34a7.19,7.19,0,0,1,6.9-5.07l29.41.13a7.18,7.18,0,0,1,6.86,5.14L919,561.52a7.2,7.2,0,0,1-6.92,9.23l-17.33-.08a7.2,7.2,0,0,1-7-5.52Zm-5.65-23.52-6.6-28a2.29,2.29,0,0,0-4.46,0l-7.08,28.47,17.75.07a.41.41,0,0,0,.4-.43.15.15,0,0,1,0-.07Z" transform="translate(-466.53 -450.6)"/><g id="Path_897-2" data-name="Path 897"><path id="Path_185-2" data-name="Path 185" class="cls-2" d="M913.57,563.43l-17.33-.08a5.09,5.09,0,0,1-5-3.93L886.89,541l-.37-1.58-32.78-.14-.4,1.58-4.53,18.38a5.11,5.11,0,0,1-5,3.9l-17.32-.08a5.11,5.11,0,0,1-5.1-5.13,5.38,5.38,0,0,1,.23-1.49l29.31-95.34a5.08,5.08,0,0,1,4.91-3.61l29.41.12a5.17,5.17,0,0,1,4.88,3.66l28.36,95.6a5.16,5.16,0,0,1-3.53,6.37A5.57,5.57,0,0,1,913.57,563.43ZM870.41,486.1a4.29,4.29,0,0,0-4.25,3.31l-7.08,28.46-.65,2.58,20.38.08a2.46,2.46,0,0,0,2.48-2.44,2.25,2.25,0,0,0-.07-.58l-6.6-28A4.3,4.3,0,0,0,870.41,486.1Z" transform="translate(-466.53 -450.6)"/><path id="Path_186-2" data-name="Path 186" class="cls-3" d="M913.6,561.36a3,3,0,0,0,3.06-3,2.89,2.89,0,0,0-.13-.88l-28.35-95.6a3.09,3.09,0,0,0-2.91-2.19l-29.41-.12a3,3,0,0,0-2.93,2.15L823.62,557a3,3,0,0,0,2,3.81,2.94,2.94,0,0,0,.88.14l17.33.07a3,3,0,0,0,3-2.31l4.53-18.39.78-3.16,36,.16.75,3.16,4.38,18.43a3.07,3.07,0,0,0,3,2.34l17.34.07M870.45,484a6.43,6.43,0,0,1,6.22,5l6.61,28a4.51,4.51,0,0,1-3.32,5.44,4.64,4.64,0,0,1-1.12.13l-23-.1,1.27-5.11,7.08-28.46a6.42,6.42,0,0,1,6.26-4.88m43.14,81.48-17.38-.08a7.17,7.17,0,0,1-7-5.52l-4.38-18.42-29.54-.13-4.53,18.39a7.19,7.19,0,0,1-7,5.46l-17.3-.08a7.17,7.17,0,0,1-7.15-7.21,7.27,7.27,0,0,1,.31-2.08L849,460.49a7.17,7.17,0,0,1,6.9-5.07l29.41.13a7.19,7.19,0,0,1,6.86,5.14l28.35,95.59a7.2,7.2,0,0,1-6.9,9.22Zm-43.15-77.34a2.24,2.24,0,0,0-2.23,1.74l-7.09,28.47,17.76.08a.4.4,0,0,0,.4-.4s0-.06,0-.09l-6.61-28a2.26,2.26,0,0,0-2.25-1.77Z" transform="translate(-466.53 -450.6)"/></g></g><path id="Path_906" data-name="Path 906" class="cls-15" d="M1068.57,711.54q-17.64,32.28-38.44,62.68c50.14,88.46,19.09,200.81-69.37,251a184.1,184.1,0,0,1-170.06,6,617.81,617.81,0,0,1-61,42.38c115.13,77.41,271.22,46.84,348.64-68.29a251.21,251.21,0,0,0-9.68-293.78Z" transform="translate(-466.53 -450.6)"/><path id="Path_907" data-name="Path 907" class="cls-16" d="M745,1000.38c-74.32-69.44-78.27-186-8.84-260.29s186-78.27,260.28-8.84a451.4,451.4,0,0,0,33-60.36c-107.06-88.25-265.38-73-353.63,34a251.21,251.21,0,0,0,9.44,330.4A309.24,309.24,0,0,0,745,1000.38Z" transform="translate(-466.53 -450.6)"/><path id="Path_908" data-name="Path 908" class="cls-17" d="M867.59,928v21.8h81l-27.55-77Z" transform="translate(-466.53 -450.6)"/><path id="Path_909" data-name="Path 909" class="cls-17" d="M984.52,743.16H925.13l-34.51,42.71-15.18-42.71H799.31L837,842.26,725.59,949.73h74.53c26.39-23.09,62.78-59.17,90.56-89.61A974.33,974.33,0,0,0,984.52,743.16Z" transform="translate(-466.53 -450.6)"/><g id="Path_910" data-name="Path 910"><path id="Path_193" data-name="Path 193" class="cls-2" d="M697.51,1023.87a246.13,246.13,0,0,1-53.29-77c-54.48-124.45,2.25-269.5,126.7-324a245.44,245.44,0,0,1,257.26,37.47,365.1,365.1,0,0,1-26.39,52.08A187.72,187.72,0,0,0,869.7,658.7C765,658.62,680.11,743.42,680,848.1a189.55,189.55,0,0,0,66.74,144.51A379,379,0,0,1,697.51,1023.87Z" transform="translate(-466.53 -450.6)"/><path id="Path_194" data-name="Path 194" class="cls-3" d="M698.5,1017.38a369.22,369.22,0,0,0,39.79-25.17C658.72,919.78,652.93,796.56,725.36,717S921,631.63,1000.58,704.06A356.13,356.13,0,0,0,1021.8,662C919,577.87,767.42,593,683.29,695.84a240.63,240.63,0,0,0-54.38,152.57,238,238,0,0,0,20.18,96.39,240.5,240.5,0,0,0,49.49,72.58m-2,12.92c-100.61-95.48-104.76-254.44-9.28-355C780,577.65,933.06,570.4,1034.5,658.8A373.2,373.2,0,0,1,1002.88,721C932.57,647.47,816,644.83,742.4,715.13s-76.2,186.93-5.89,260.48a183.76,183.76,0,0,0,18.92,17.23,387.87,387.87,0,0,1-58.9,37.44Z" transform="translate(-466.53 -450.6)"/></g><g id="Path_911" data-name="Path 911"><path id="Path_195" data-name="Path 195" class="cls-2" d="M869.68,1094.51A245.54,245.54,0,0,1,753.28,1065c16.5-11,33.9-23.9,51.87-38.38,98.21,35.85,206.9-14.7,242.76-112.92a189.36,189.36,0,0,0-6.86-146.2c12.9-19.5,24.09-38,33.36-55.26,75.37,112.9,44.95,265.53-68,340.91A245.84,245.84,0,0,1,869.68,1094.51Z" transform="translate(-466.53 -450.6)"/><path id="Path_196" data-name="Path 196" class="cls-3" d="M1074.75,722.51c-8,14.36-17.29,29.54-27.66,45.36a192.48,192.48,0,0,1,17.57,80.49c.22,107.46-86.71,194.76-194.17,195a194.4,194.4,0,0,1-64.34-10.8c-14.61,11.72-28.85,22.34-42.52,31.79,119.09,58.78,263.28,9.88,322.06-109.21a240.48,240.48,0,0,0-10.94-232.61m-1-20.54c81,112.55,55.4,269.44-57.15,350.42a251.07,251.07,0,0,1-273.44,12.9,706.86,706.86,0,0,0,61-44.77c94.9,36.37,201.32-11.08,237.68-106a184,184,0,0,0-7-147.58,695.21,695.21,0,0,0,38.82-65Z" transform="translate(-466.53 -450.6)"/></g><g id="Path_912" data-name="Path 912"><path id="Path_197" data-name="Path 197" class="cls-18" d="M617.94,1132.48a33,33,0,0,1-22.93-7.39c-10.29-9.4-11.28-25.57-3.1-50.84a273,273,0,0,1,13-32,37.6,37.6,0,0,0,8.4,34,29.71,29.71,0,0,0,20.68,7c31.18,0,78.39-30.32,112.51-55.76A1158.72,1158.72,0,0,0,901.16,884.24a1075.15,1075.15,0,0,0,141.46-189c23.09-41.24,45.81-94.8,23.56-115.09a29.55,29.55,0,0,0-20.68-7,61.33,61.33,0,0,0-11.54,1.2,123.09,123.09,0,0,1,56.63-19.07,40.8,40.8,0,0,1,27.1,9.55,23.33,23.33,0,0,1,6.92,17c1.83,26.39-16.25,74.23-49.59,131A1214.63,1214.63,0,0,1,928.2,907.65a1198.58,1198.58,0,0,1-179.82,163.76C693.48,1110.8,647.14,1132.48,617.94,1132.48Z" transform="translate(-466.53 -450.6)"/><path id="Path_198" data-name="Path 198" class="cls-3" d="M617.94,1127.19c28,0,73.35-21.33,127.41-60.1a1193.4,1193.4,0,0,0,178.92-163,1209.5,1209.5,0,0,0,146.18-193.92c32.81-55.89,50.61-102.52,48.86-127.93a18.46,18.46,0,0,0-5-13.31,35.21,35.21,0,0,0-23.72-8.25,89.31,89.31,0,0,0-34.18,8.58,31,31,0,0,1,13.36,7.09c19.91,18.15,12.34,59.09-22.52,121.6a1079.06,1079.06,0,0,1-142.17,190A1162.09,1162.09,0,0,1,749.75,1031.8c-34.76,25.93-83,56.82-115.67,56.82a34.69,34.69,0,0,1-24.25-8.4,31.43,31.43,0,0,1-9-14.85q-2.14,5.57-3.77,10.61a82.84,82.84,0,0,0-5.07,29.69,21.71,21.71,0,0,0,6.7,15.54,28,28,0,0,0,19.35,6m0,10.59a37.93,37.93,0,0,1-26.49-8.78c-24.9-22.73-2.38-75.52,45.2-156.31-26.15,49.18-34.73,86-19.8,99.63A24.58,24.58,0,0,0,634,1078c47.51,0,156.29-80.14,263.22-197.28,123.08-134.83,197.12-267.61,165.36-296.59a24.52,24.52,0,0,0-17.11-5.63c-18.62,0-46.66,12.32-80.32,34.35,55-39.5,95.29-62.82,125.38-62.82A46,46,0,0,1,1121,560.77c36.74,30.49-42.13,189.62-189,350.46C807.46,1047.77,680,1137.78,617.94,1137.78Z" transform="translate(-466.53 -450.6)"/></g></svg>