<svg width="20" height="21" viewBox="0 0 20 21" fill="none" xmlns="http://www.w3.org/2000/svg">
<path d="M19.6093 11.0824C19.5617 11.8807 19.4202 12.6702 19.188 13.4339C15.6007 13.2147 12.2369 11.5803 9.80538 8.87537C7.3744 11.5801 4.01122 13.2145 0.424508 13.4344C0.192635 12.6705 0.0506192 11.8811 0.00146484 11.0829C1.21314 11.0392 2.41054 10.8009 3.54973 10.3767C2.55272 9.53006 1.40605 8.88689 0.1719 8.48204C0.324283 7.70446 0.566714 6.94818 0.894074 6.22921C2.73137 6.83498 4.40593 7.86862 5.78581 9.24869C6.61252 8.71113 7.36952 8.06904 8.03886 7.33763C5.79984 6.93835 3.75461 5.78842 2.22581 4.06925C2.71844 3.45632 3.28081 2.90563 3.90103 2.42885C4.79132 3.44411 5.91761 4.21357 7.17581 4.66613C6.71423 3.52318 6.40169 2.32314 6.24625 1.09688C6.97588 0.807722 7.7366 0.608398 8.51233 0.503111C8.66756 2.01186 9.10663 3.47572 9.80538 4.81413C10.5047 3.47481 10.9439 2.00985 11.0989 0.5C11.8748 0.604474 12.6357 0.80413 13.3649 1.09465C13.2092 2.32129 12.8967 3.52174 12.4354 4.66524C13.6925 4.21252 14.818 3.44393 15.7084 2.43018C16.3291 2.90584 16.8923 3.45515 17.3863 4.06659C15.857 5.78637 13.8112 6.93677 11.5715 7.33629C12.2412 8.06759 12.9985 8.70967 13.8254 9.24736C15.2053 7.86729 16.8798 6.83364 18.7171 6.22787C19.0426 6.94752 19.2841 7.70381 19.4367 8.48116C18.2036 8.88623 17.058 9.52923 16.0619 10.3753C17.2008 10.7997 18.3979 11.0383 19.6093 11.0824ZM10.9636 20.4271V17.0574L14.2941 12.6193C13.5765 12.2965 12.8861 11.914 12.2297 11.4758L9.80451 14.7081L7.37929 11.4758C6.72301 11.9141 6.03257 12.2966 5.31494 12.6193L8.64494 17.0574V20.4289C9.41508 20.5214 10.1936 20.5208 10.9636 20.4271Z" fill="#FA6432"/>
</svg>
